Coordinates
version=1
nRows=11
nColumns=36
inDegrees=yes

Units are S.I. units (second, meters, Newtons, ...)
If the header above contains a line with 'inDegrees', this indicates whether rotational values are in degrees (yes) or radians (no).

endheader
time	pelvis_tilt	pelvis_list	pelvis_rotation	pelvis_tx	pelvis_ty	pelvis_tz	hip_flexion_r	hip_adduction_r	hip_rotation_r	knee_angle_r	knee_angle_r_beta	ankle_angle_r	subtalar_angle_r	mtp_angle_r	hip_flexion_l	hip_adduction_l	hip_rotation_l	knee_angle_l	knee_angle_l_beta	ankle_angle_l	subtalar_angle_l	mtp_angle_l	lumbar_extension	lumbar_bending	lumbar_rotation	arm_flex_r	arm_add_r	arm_rot_r	elbow_flex_r	pro_sup_r	arm_flex_l	arm_add_l	arm_rot_l	elbow_flex_l	pro_sup_l
      0.00000000	      3.92546929	     -1.13440991	     -0.00719463	     -0.91194499	      1.27214166	     -0.02163927	      0.03847961	      0.90266322	      0.38809774	     12.11707319	      0.21148282	      3.02089615	    -23.32617422	     -5.79433352	      0.10289104	     -4.42645716	      2.37718651	     14.29961840	      0.24957542	     12.93557132	     -4.77387682	     -5.79433352	    -21.20652124	      1.14796488	      0.28713319	      6.00666072	     -9.56453588	     19.41114874	     22.50539912	     70.68750135	      2.24640497	     -7.08533207	     15.10401511	     22.41600552	     66.10871729
      0.00416670	      3.60955133	     -0.69074417	      0.03423793	     -0.91116847	      1.27744455	     -0.02089990	      0.68472724	      1.00002875	      1.27663923	     12.81534178	      0.22366991	      5.46944688	    -23.84997712	     -5.81202194	      0.62399005	     -3.30191481	      4.37480579	     14.67037109	      0.25604628	     13.18623925	     -4.47064672	     -5.81202194	    -20.92481630	      0.68109256	      0.30607429	      5.79519299	     -8.95139232	     18.88038065	     22.00962322	     70.61183810	      2.18441134	     -6.59361468	     14.66006069	     22.10621506	     66.04995105
      0.00833330	      1.83997093	     -0.17268626	     -0.12986507	     -0.91108968	      1.27304270	     -0.01993880	      2.66494197	      0.47168146	      0.32422137	     12.73236120	      0.22222162	      6.08404712	    -23.05015718	     -6.64780110	      2.68660853	     -2.75856657	      5.12105400	     15.01325756	      0.26203078	     12.61295670	     -6.03900871	     -6.64780110	    -18.67447368	     -0.15762115	      0.68730687	      4.55464254	     -7.20408540	      8.76837273	     21.96590235	     76.58426133	      1.79040414	     -5.94044453	      9.10992469	     21.77996233	     72.02028817
      0.01250000	      2.98895505	     -0.02027581	     -0.08005640	     -0.91137516	      1.27453483	     -0.02101763	      1.28522523	      0.26758727	      0.38006832	     12.48090203	      0.21783283	      5.99495299	    -23.22568052	     -6.71377216	      1.11470731	     -2.47132155	      6.14426714	     14.52737607	      0.25355054	     12.08240222	     -7.51656912	     -6.71377216	    -20.16458550	     -0.38903734	      0.76416641	      4.47160939	     -6.94208586	      7.39240780	     22.41697138	     76.01360220	      2.07146481	     -6.07796043	      8.82555694	     22.04667857	     71.94368145
      0.01666670	      3.52467146	      0.14813845	      0.07179650	     -0.91219099	      1.27571908	     -0.01913011	      0.57707841	      0.18292756	      0.46513569	     12.17105349	      0.21242496	      5.65780630	    -23.65444096	     -7.17484681	      0.52364485	     -2.23480322	      6.79805853	     14.26279954	      0.24893281	     11.76701495	     -8.58277160	     -7.17484681	    -20.96582594	     -0.56782722	      1.07928905	      4.14700162	     -6.63785153	      4.46115995	     23.03787519	     79.21049935	      2.39386622	     -6.04690759	      7.88952598	     22.24286150	     75.37445592
      0.02083330	      4.05128237	      0.27065213	      0.22537743	     -0.91282374	      1.27596911	     -0.01973917	      0.01449039	      0.10238110	      0.57981752	     12.11714051	      0.21148400	      5.23746738	    -24.17961138	     -7.20556763	      0.05332600	     -2.05729974	      7.25274477	     14.24631924	      0.24864518	     11.51336328	     -9.40868359	     -7.20556763	    -21.67158260	     -0.63606977	      1.17545559	      4.18639345	     -6.74890708	      4.81894018	     23.32548518	     78.85817346	      2.63679804	     -6.08660583	      8.15285844	     22.51163134	     75.17459405
      0.02500000	      4.32281408	      0.34617814	      0.29838898	     -0.91264755	      1.27642950	     -0.01979749	     -0.30147639	      0.01347068	      0.67075464	     11.99360693	      0.20932793	      4.73024745	    -24.80799279	     -7.23287192	     -0.12705489	     -1.90876329	      7.59768911	     14.26831955	      0.24902915	     11.19509490	    -10.22430761	     -7.23287192	    -22.08463321	     -0.63961884	      1.30164239	      4.26647245	     -6.94564973	      5.41227662	     23.40802768	     78.28328876	      2.83075643	     -6.06307002	      8.50319847	     22.65334937	     74.80344043
      0.02916670	      4.58918700	      0.42856843	      0.38651706	     -0.91167280	      1.27922818	     -0.02036753	     -0.80971702	     -0.06824811	      0.73553417	     11.59643691	      0.20239601	      4.24772014	    -25.11785942	     -7.22235819	     -0.47965097	     -1.75916030	      7.99600109	     14.09231650	      0.24595732	     10.62672756	    -11.02560974	     -7.22235819	    -22.32881722	     -0.65807777	      1.33609713	      4.27448955	     -7.04938861	      5.78125413	     23.37938701	     78.88698311	      2.93827800	     -6.02053324	      8.67859978	     22.65551983	     75.38400200
      0.03333330	      4.78126417	      0.45138841	      0.44533389	     -0.91137456	      1.27893761	     -0.02054803	     -1.23054145	     -0.09375927	      0.83849223	     11.17954065	      0.19511979	      3.68448178	    -25.58284855	     -7.25750359	     -0.75469543	     -1.69000876	      8.33876751	     13.96795438	      0.24378679	     10.24994397	    -11.61178273	     -7.25750359	    -22.54526530	     -0.62706973	      1.36524601	      4.25587984	     -7.14698853	      6.21378751	     23.45145453	     79.06676770	      2.93756816	     -5.99150002	      8.69919204	     22.85099726	     75.81451096
      0.03750000	      4.98676202	      0.48035378	      0.45531613	     -0.91097681	      1.27914019	     -0.01994601	     -1.68228474	     -0.08230301	      1.01564439	     10.75341364	      0.18768247	      3.35721026	    -25.68659362	     -7.43262047	     -1.14490355	     -1.65293676	      8.49380894	     13.71969728	      0.23945389	      9.86112705	    -11.93125813	     -7.43262047	    -22.70419442	     -0.64419404	      1.35242018	      4.22895589	     -7.16360135	      5.79008717	     23.44752956	     82.02033377	      2.86606771	     -5.88766176	      7.19442142	     22.99330940	     80.13046374
      0.04166670	      5.06504595	      0.48297203	      0.50623521	     -0.91118787	      1.27706540	     -0.01926266	     -1.86242790	     -0.03973585	      1.07715099	     10.54951174	      0.18412371	      2.96871040	    -26.17015245	     -7.46944123	     -1.26961699	     -1.64758903	      8.71399716	     13.65827644	      0.23838189	      9.54140875	    -12.41897356	     -7.46944123	    -22.75083505	     -0.62253710	      1.35042112	      4.21123854	     -7.22566933	      6.10330809	     23.43617806	     82.41265033	      2.87608997	     -5.94184734	      7.18607518	     23.05025741	     81.14905625
